<svg width="16" height="16" viewBox="0 0 16 16" fill="none" xmlns="http://www.w3.org/2000/svg">
<path fill-rule="evenodd" clip-rule="evenodd" d="M14.934 0.0488281C15.1004 0.0488281 15.2599 0.114921 15.3776 0.232568C15.4952 0.350214 15.5613 0.509777 15.5613 0.676154L15.5613 8.20407C15.5613 8.37044 15.4952 8.53001 15.3776 8.64765C15.2599 8.7653 15.1004 8.83139 14.934 8.83139C14.7676 8.83139 14.608 8.7653 14.4904 8.64765C14.3728 8.53001 14.3067 8.37044 14.3067 8.20407L14.3067 2.19052L1.57696 14.9215C1.45917 15.0393 1.2994 15.1054 1.13281 15.1054C0.966226 15.1054 0.806462 15.0393 0.688667 14.9215C0.570872 14.8037 0.504695 14.6439 0.504695 14.4773C0.504695 14.3107 0.570872 14.151 0.688667 14.0332L13.4196 1.30348L7.40607 1.30348C7.2397 1.30348 7.08013 1.23739 6.96249 1.11974C6.84484 1.00209 6.77875 0.842531 6.77875 0.676154C6.77875 0.509777 6.84484 0.350214 6.96249 0.232567C7.08013 0.114921 7.2397 0.0488278 7.40607 0.0488278L14.934 0.0488281Z" fill="#011B32"/>
</svg>
