<svg width="23" height="27" viewBox="0 0 23 27" fill="none" xmlns="http://www.w3.org/2000/svg">
<path d="M21.7817 9.57333C20.9162 8.6175 19.6117 8.06208 17.8033 7.86833V6.88667C17.8033 5.11708 17.0542 3.41208 15.7367 2.22375C14.4062 1.00958 12.6754 0.441248 10.88 0.609165C7.79291 0.906248 5.19666 3.89 5.19666 7.11916V7.86833C3.38833 8.06208 2.08375 8.6175 1.21833 9.57333C-0.0345863 10.9683 0.00416387 12.8283 0.146247 14.12L1.05041 21.3146C1.32166 23.8333 2.34208 26.4167 7.89625 26.4167H15.1037C20.6579 26.4167 21.6783 23.8333 21.9496 21.3275L22.8538 14.1071C22.9958 12.8283 23.0217 10.9683 21.7817 9.57333ZM11.0608 2.40458C12.3525 2.28833 13.5796 2.68875 14.5354 3.55417C15.4783 4.40667 16.0079 5.62083 16.0079 6.88667V7.79083H6.99208V7.11916C6.99208 4.82 8.89083 2.61125 11.0608 2.40458ZM6.87583 14.9854H6.86291C6.1525 14.9854 5.57125 14.4042 5.57125 13.6937C5.57125 12.9833 6.1525 12.4021 6.86291 12.4021C7.58625 12.4021 8.1675 12.9833 8.1675 13.6937C8.1675 14.4042 7.58625 14.9854 6.87583 14.9854ZM15.9175 14.9854H15.9046C15.1942 14.9854 14.6129 14.4042 14.6129 13.6937C14.6129 12.9833 15.1942 12.4021 15.9046 12.4021C16.6279 12.4021 17.2092 12.9833 17.2092 13.6937C17.2092 14.4042 16.6279 14.9854 15.9175 14.9854Z" fill="#8397EA"/>
</svg>
