<svg width="714" height="365" viewBox="0 0 714 365" fill="none" xmlns="http://www.w3.org/2000/svg">
<path d="M165.161 364.489C201.078 364.489 240.898 356.663 283.015 348.626C333.537 338.738 385.391 328.533 442.113 328.533C446.293 328.533 450.426 328.533 454.33 328.533L464.343 328.85C472.932 328.85 481.015 329.379 488.823 329.379C537.692 329.379 567.913 317.904 587.892 257.412C600.477 219.181 614.761 175.875 649.07 147.955C658.761 140.023 668.452 133.255 677.04 127.333C696.882 113.532 712.544 102.639 713.141 87.5687C713.646 73.7147 701.521 57.0582 673.688 33.5805C647.049 11.0546 625.095 0.108832 606.631 0.10883C604.978 0.10883 603.278 0.10883 601.671 0.10883C574.848 2.96423 556.844 28.5042 534.063 60.8125C522.844 77.2428 510.886 92.9866 498.239 107.979C439.364 176.124 366.435 225.956 286.276 252.812C254.466 263.553 221.505 269.106 188.355 269.309C110.276 269.309 49.925 236.79 0.0460083 199.141L0.0460081 201.044C49.925 238.535 110.276 270.896 188.355 270.896C221.632 270.645 254.715 265.038 286.643 254.239C367.023 227.287 440.155 177.312 499.203 108.984C511.895 93.9712 523.884 78.1913 535.12 61.7114C557.717 29.6675 575.537 4.39196 601.809 1.58944C603.37 1.58944 605.024 1.58944 606.631 1.58944C624.773 1.58944 646.452 12.165 672.907 34.7438C700.464 57.9043 712.268 74.1377 711.763 87.6215C711.212 101.793 695.779 112.527 676.305 126.064C667.717 132.039 657.934 138.807 648.243 146.739C613.612 174.976 599.282 218.547 586.606 256.989C566.948 316.212 537.049 327.475 488.823 327.475C481.015 327.475 472.932 327.211 464.389 326.946L454.376 326.629C450.426 326.629 446.339 326.629 442.113 326.629C385.299 326.629 333.169 336.887 282.785 346.775C240.714 355.024 200.986 362.639 165.161 362.639C146.446 362.91 127.789 360.188 109.725 354.548C74.1296 342.915 37.6619 323.721 0.0459994 301.036L0.0459992 302.834C37.5241 325.148 73.8539 344.184 109.357 355.712C127.508 361.641 146.294 364.596 165.161 364.489V364.489Z" fill="#0C2D4B"/>
</svg>
