<svg width="644" height="298" viewBox="0 0 644 298" fill="none" xmlns="http://www.w3.org/2000/svg">
<path d="M165.161 297.844C198.368 297.844 236.903 290.283 277.688 282.246C329.312 272.093 382.727 261.623 442.113 261.623C446.461 261.623 450.779 261.623 455.066 261.623L465.216 261.941C473.529 261.941 481.429 262.469 488.823 262.469C553.124 262.469 556.339 221.753 559.738 178.605C561.575 154.969 563.458 130.539 574.803 109.864C578.844 102.408 589.684 93.049 601.166 83.108C625.646 61.9569 653.387 37.9504 640.068 15.4774C638.016 11.2412 635.057 7.68065 631.471 5.13511C627.885 2.58958 623.792 1.14393 619.583 0.935982C614.754 1.12537 610.032 2.6294 605.805 5.32484C584.08 18.227 560.886 56.3518 542.239 87.0209C531.629 104.471 522.489 119.488 517.483 122.925C512.533 125.952 506.958 127.36 501.362 126.997L495.483 126.997C493.508 126.997 491.487 126.997 489.466 126.997C485.333 126.609 481.175 127.171 477.232 128.651C473.29 130.131 469.642 132.498 466.502 135.616C457.821 144.711 456.719 156.767 455.663 167.924C454.698 178.499 453.825 187.912 447.901 196.055C429.988 220.696 367.157 237.934 325.592 249.303C313.328 252.687 302.627 255.542 294.911 258.186C260.281 269.77 224.417 275.733 188.355 275.9C111.562 275.9 50.155 246.923 0.046357 212.447L0.0463567 215.567C50.2009 250.043 111.608 279.02 188.355 279.02C224.695 278.613 260.807 272.366 295.646 260.46C303.454 257.869 314.017 255.172 326.189 251.629C370.556 239.467 431.32 222.811 449.738 197.483C456.122 188.705 457.086 178.182 458.051 167.977C459.107 156.555 460.072 145.715 468.155 137.308C471.064 134.442 474.436 132.266 478.078 130.905C481.719 129.544 485.558 129.024 489.375 129.376C491.349 129.376 493.324 129.376 495.299 129.376L501.27 129.376C507.287 129.752 513.277 128.216 518.585 124.934C524.005 121.18 532.823 106.691 544.03 88.29C561.529 59.4717 585.366 19.972 606.723 7.38707C619.675 -0.2802 629.917 2.73384 638.185 16.6936C650.264 37.1044 623.441 60.2648 599.788 80.7285C587.617 91.3041 577.099 100.346 572.828 108.172C561.253 129.323 559.324 154.281 557.441 178.235C553.997 221.912 551.057 259.667 488.823 259.667C481.429 259.667 473.575 259.667 465.262 259.138L455.157 258.821C450.84 258.821 446.477 258.821 442.113 258.821C382.406 258.821 329.036 269.396 277.274 279.496C236.627 287.48 198.184 295.042 165.161 295.042C149.475 295.312 133.831 293.07 118.681 288.379C81.157 276.323 41.3825 254.273 0.0463556 228.733L0.0463553 231.906C41.3825 257.023 80.6519 278.756 118.038 291.076C133.394 295.854 149.256 298.132 165.161 297.844V297.844Z" fill="#0C2D4B"/>
</svg>
