<svg width="787" height="448" viewBox="0 0 787 448" fill="none" xmlns="http://www.w3.org/2000/svg">
<path d="M165.161 447.503C203.787 447.503 244.894 439.413 288.435 430.847C337.441 421.223 388.147 411.282 442.113 411.282C446.017 411.282 449.875 411.282 453.595 411.282C469.959 412.049 486.233 414.455 502.234 418.473C512.948 421.429 523.883 423.199 534.89 423.761C558.727 423.761 576.226 409.273 595.424 373.845C604.466 355.59 612.001 336.4 617.93 316.525C629.458 281.573 641.353 245.458 667.717 224.042C676.902 216.639 694.126 210.928 712.498 204.9C744.648 194.325 781.024 182.374 785.984 157.31C792.139 126.06 736.335 83.2815 706.343 60.2268C700.74 55.9437 695.917 52.2423 692.564 49.6513C657.429 19.934 628.264 0.157656 600.706 0.157654C596.965 0.153285 593.231 0.524874 589.546 1.26812C567.454 5.86848 547.429 23.794 526.485 57.7944C465.979 156.764 378.159 229.243 277.32 263.436C248.408 273.12 218.465 278.121 188.355 278.295C109.128 278.295 50.568 241.28 0.0460076 200.406L0.0460075 202.362C50.568 243.289 109.128 279.881 188.355 279.881C218.633 279.621 248.732 274.496 277.779 264.652C378.941 230.401 467.043 157.711 527.725 58.4289C548.439 24.7987 568.189 7.08467 589.867 2.59006C593.475 1.8487 597.133 1.47707 600.798 1.4796C628.08 1.4796 656.969 21.1501 691.921 50.6559C695.091 53.3527 699.913 57.0541 705.7 61.2315C735.416 84.0218 790.761 126.43 784.79 156.676C780.197 180.735 744.051 192.527 712.314 202.944C693.942 209.025 676.351 214.788 667.12 222.297C640.435 243.977 628.447 280.463 616.827 315.573C610.914 335.328 603.427 354.41 594.46 372.576C575.583 407.475 558.36 421.752 535.074 421.752C524.16 421.16 513.319 419.39 502.694 416.464C486.605 412.399 470.237 409.975 453.779 409.22C450.059 409.22 446.201 409.22 442.297 409.22C388.193 409.22 337.441 419.161 288.343 428.838C244.894 437.351 203.879 445.441 165.345 445.441C143.63 445.753 121.984 442.549 101.044 435.923C66.1648 423.666 32.3406 407.735 1.72989e-05 388.333L1.71417e-05 390.131C32.1643 409.355 65.8055 425.109 100.493 437.192C121.52 444.116 143.291 447.587 165.161 447.503Z" fill="url(#paint0_linear_32_13)"/>
<defs>
<linearGradient id="paint0_linear_32_13" x1="393.227" y1="447.505" x2="393.227" y2="0.157589" gradientUnits="userSpaceOnUse">
<stop stop-color="#F69C2C"/>
<stop offset="1" stop-color="#0C2D4B" stop-opacity="0"/>
</linearGradient>
</defs>
</svg>
